<svg width="150" height="36" viewBox="0 0 150 36" fill="none" xmlns="http://www.w3.org/2000/svg">
<path fill-rule="evenodd" clip-rule="evenodd" d="M33.5858 13.6552C29.5651 7.22507 19.8048 2 0 2V0C20.0343 0 30.7045 5.27493 35.2815 12.5948C39.3994 19.1803 38.3685 27.0691 35.32 33.4401L41.8013 31.6977C42.3347 31.5543 42.8833 31.8704 43.0267 32.4038C43.1701 32.9371 42.8539 33.4857 42.3206 33.6291L33.6292 35.9657C33.0958 36.1091 32.5472 35.793 32.4039 35.2596L30.0672 26.5682C29.9239 26.0349 30.24 25.4863 30.7733 25.3429C31.3067 25.1995 31.8553 25.5156 31.9987 26.049L33.6677 32.2572C36.4155 26.3346 37.1476 19.3515 33.5858 13.6552Z" fill="black"/>
<path d="M43.7812 12.8418H49.4111V20H48.459V13.6865H44.7285V20H43.7812V12.8418Z" fill="black"/>
<path d="M50.5195 17.4072C50.5195 16.4469 50.7865 15.7357 51.3203 15.2734C51.7663 14.8893 52.3099 14.6973 52.9512 14.6973C53.6641 14.6973 54.2467 14.9316 54.6992 15.4004C55.1517 15.8659 55.3779 16.5104 55.3779 17.334C55.3779 18.0013 55.277 18.527 55.0752 18.9111C54.8766 19.292 54.5853 19.5882 54.2012 19.7998C53.8203 20.0114 53.4036 20.1172 52.9512 20.1172C52.2253 20.1172 51.6377 19.8844 51.1885 19.4189C50.7425 18.9535 50.5195 18.2829 50.5195 17.4072ZM51.4229 17.4072C51.4229 18.0713 51.5677 18.5693 51.8574 18.9014C52.1471 19.2301 52.5117 19.3945 52.9512 19.3945C53.3874 19.3945 53.7503 19.2285 54.04 18.8965C54.3298 18.5645 54.4746 18.0583 54.4746 17.3779C54.4746 16.7367 54.3281 16.2516 54.0352 15.9229C53.7454 15.5908 53.3841 15.4248 52.9512 15.4248C52.5117 15.4248 52.1471 15.5892 51.8574 15.918C51.5677 16.2467 51.4229 16.7432 51.4229 17.4072Z" fill="black"/>
<path d="M56.4375 14.8145H57.8047L59.167 18.9648L60.6807 14.8145H61.9453V20H61.0664V15.8252L59.5332 20H58.7471L57.2969 15.625V20H56.4375V14.8145Z" fill="black"/>
<path d="M66.8379 18.3301L67.7461 18.4424C67.6029 18.973 67.3376 19.3848 66.9502 19.6777C66.5628 19.9707 66.068 20.1172 65.4658 20.1172C64.7074 20.1172 64.1051 19.8844 63.6592 19.4189C63.2165 18.9502 62.9951 18.2943 62.9951 17.4512C62.9951 16.5788 63.2197 15.9017 63.6689 15.4199C64.1182 14.9382 64.7008 14.6973 65.417 14.6973C66.1104 14.6973 66.6768 14.9333 67.1162 15.4053C67.5557 15.8773 67.7754 16.5413 67.7754 17.3975C67.7754 17.4495 67.7738 17.5277 67.7705 17.6318H63.9033C63.9359 18.2015 64.097 18.6377 64.3867 18.9404C64.6764 19.2432 65.0378 19.3945 65.4707 19.3945C65.793 19.3945 66.068 19.3099 66.2959 19.1406C66.5238 18.9714 66.7044 18.7012 66.8379 18.3301ZM63.9521 16.9092H66.8477C66.8086 16.473 66.6979 16.1458 66.5156 15.9277C66.2357 15.5892 65.8727 15.4199 65.4268 15.4199C65.0231 15.4199 64.6829 15.555 64.4062 15.8252C64.1328 16.0954 63.9814 16.4567 63.9521 16.9092Z" fill="black"/>
<path d="M68.8594 14.8145H69.7383V16.9727H72.1748V14.8145H73.0537V20H72.1748V17.7002H69.7383V20H68.8594V14.8145Z" fill="black"/>
<path d="M78.4639 14.8145V20H77.5898V17.9785H77.082C76.7728 17.9785 76.5417 18.0192 76.3887 18.1006C76.2389 18.1787 76.0192 18.4342 75.7295 18.8672L74.9629 20H73.874L74.8213 18.6035C75.111 18.1771 75.3991 17.9362 75.6855 17.8809C75.1842 17.8125 74.8115 17.6318 74.5674 17.3389C74.3265 17.0459 74.2061 16.709 74.2061 16.3281C74.2061 15.8789 74.3639 15.5143 74.6797 15.2344C74.9987 14.9544 75.4593 14.8145 76.0615 14.8145H78.4639ZM77.5898 15.542H76.3398C75.8158 15.542 75.4772 15.6234 75.3242 15.7861C75.1745 15.9489 75.0996 16.1393 75.0996 16.3574C75.0996 16.6667 75.2103 16.8945 75.4316 17.041C75.6562 17.1842 76.0518 17.2559 76.6182 17.2559H77.5898V15.542Z" fill="black"/>
<path d="M79.3281 14.8145H83.542V15.542H81.8721V20H80.998V15.542H79.3281V14.8145Z" fill="black"/>
<path d="M84.3672 14.8145H85.2461V16.8408H86.3594C87.0853 16.8408 87.6436 16.9824 88.0342 17.2656C88.4281 17.5456 88.625 17.9329 88.625 18.4277C88.625 18.8607 88.4606 19.2318 88.1318 19.541C87.8063 19.847 87.2839 20 86.5645 20H84.3672V14.8145ZM85.2461 19.2773H86.1689C86.7256 19.2773 87.1227 19.209 87.3604 19.0723C87.598 18.9355 87.7168 18.7223 87.7168 18.4326C87.7168 18.208 87.6289 18.0078 87.4531 17.832C87.2773 17.6562 86.8883 17.5684 86.2861 17.5684H85.2461V19.2773Z" fill="black"/>
<path d="M96.1787 12.6709L96.9551 12.6807C96.9193 13.029 96.8411 13.2715 96.7207 13.4082C96.6035 13.5449 96.4505 13.6328 96.2617 13.6719C96.0762 13.7109 95.71 13.7305 95.1631 13.7305C94.4372 13.7305 93.9424 13.8005 93.6787 13.9404C93.415 14.0804 93.2246 14.305 93.1074 14.6143C92.9935 14.9202 92.93 15.3158 92.917 15.8008C93.1383 15.472 93.3971 15.2262 93.6934 15.0635C93.9896 14.8975 94.3232 14.8145 94.6943 14.8145C95.3747 14.8145 95.9378 15.0488 96.3838 15.5176C96.8298 15.9831 97.0527 16.6146 97.0527 17.4121C97.0527 18.0176 96.9404 18.514 96.7158 18.9014C96.4912 19.2887 96.2243 19.5882 95.915 19.7998C95.609 20.0114 95.1908 20.1172 94.6602 20.1172C94.0449 20.1172 93.5664 19.9772 93.2246 19.6973C92.8828 19.4141 92.6208 19.0527 92.4385 18.6133C92.2562 18.1738 92.165 17.4089 92.165 16.3184C92.165 14.9479 92.3962 14.0251 92.8584 13.5498C93.3239 13.0745 94.0384 12.8369 95.002 12.8369C95.6009 12.8369 95.9411 12.8271 96.0225 12.8076C96.1038 12.7881 96.1559 12.7425 96.1787 12.6709ZM96.1348 17.3877C96.1348 16.8473 96.0062 16.4046 95.749 16.0596C95.4951 15.7145 95.1354 15.542 94.6699 15.542C94.1849 15.542 93.8105 15.7243 93.5469 16.0889C93.2832 16.4535 93.1514 16.9401 93.1514 17.5488C93.1514 18.151 93.2962 18.6117 93.5859 18.9307C93.8789 19.2497 94.2386 19.4092 94.665 19.4092C95.1012 19.4092 95.4544 19.2253 95.7246 18.8574C95.998 18.4863 96.1348 17.9964 96.1348 17.3877Z" fill="black"/>
<path d="M101.262 19.3604C100.936 19.637 100.622 19.8324 100.319 19.9463C100.02 20.0602 99.6976 20.1172 99.3525 20.1172C98.7829 20.1172 98.3451 19.9788 98.0391 19.7021C97.7331 19.4222 97.5801 19.0658 97.5801 18.6328C97.5801 18.3789 97.637 18.1478 97.751 17.9395C97.8682 17.7279 98.0195 17.5586 98.2051 17.4316C98.3939 17.3047 98.6055 17.2087 98.8398 17.1436C99.0124 17.098 99.2728 17.054 99.6211 17.0117C100.331 16.9271 100.853 16.8262 101.188 16.709C101.192 16.5885 101.193 16.512 101.193 16.4795C101.193 16.1214 101.11 15.8691 100.944 15.7227C100.72 15.5241 100.386 15.4248 99.9434 15.4248C99.5299 15.4248 99.224 15.498 99.0254 15.6445C98.8301 15.7878 98.6852 16.0433 98.5908 16.4111L97.7314 16.2939C97.8096 15.9261 97.9382 15.6299 98.1172 15.4053C98.2962 15.1774 98.555 15.0033 98.8936 14.8828C99.2321 14.7591 99.6243 14.6973 100.07 14.6973C100.513 14.6973 100.873 14.7493 101.149 14.8535C101.426 14.9577 101.63 15.0895 101.76 15.249C101.89 15.4053 101.981 15.6038 102.033 15.8447C102.062 15.9945 102.077 16.2646 102.077 16.6553V17.8271C102.077 18.6442 102.095 19.1618 102.131 19.3799C102.17 19.5947 102.245 19.8014 102.355 20H101.438C101.346 19.8177 101.288 19.6045 101.262 19.3604ZM101.188 17.3975C100.869 17.5277 100.391 17.6383 99.7529 17.7295C99.3916 17.7816 99.1361 17.8402 98.9863 17.9053C98.8366 17.9704 98.721 18.0664 98.6396 18.1934C98.5583 18.3171 98.5176 18.4554 98.5176 18.6084C98.5176 18.8428 98.6055 19.0381 98.7812 19.1943C98.9603 19.3506 99.2207 19.4287 99.5625 19.4287C99.901 19.4287 100.202 19.3555 100.466 19.209C100.729 19.0592 100.923 18.8558 101.047 18.5986C101.141 18.4001 101.188 18.1071 101.188 17.7197V17.3975Z" fill="black"/>
<path d="M104.475 17.6562V16.9678C104.846 16.9645 105.098 16.9499 105.231 16.9238C105.368 16.8978 105.497 16.8197 105.617 16.6895C105.738 16.5592 105.798 16.3965 105.798 16.2012C105.798 15.9635 105.718 15.7747 105.559 15.6348C105.402 15.4915 105.199 15.4199 104.948 15.4199C104.453 15.4199 104.107 15.7113 103.908 16.2939L103.073 16.1572C103.334 15.1839 103.962 14.6973 104.958 14.6973C105.511 14.6973 105.944 14.8486 106.257 15.1514C106.573 15.4541 106.73 15.8154 106.73 16.2354C106.73 16.6585 106.525 16.9954 106.115 17.2461C106.376 17.3861 106.571 17.5651 106.701 17.7832C106.831 17.998 106.896 18.2536 106.896 18.5498C106.896 19.0153 106.727 19.3929 106.389 19.6826C106.05 19.9723 105.576 20.1172 104.968 20.1172C103.786 20.1172 103.101 19.5915 102.912 18.54L103.737 18.3643C103.812 18.6963 103.964 18.9535 104.191 19.1357C104.423 19.318 104.686 19.4092 104.982 19.4092C105.279 19.4092 105.524 19.3262 105.72 19.1602C105.918 18.9909 106.018 18.776 106.018 18.5156C106.018 18.3138 105.956 18.138 105.832 17.9883C105.708 17.8385 105.576 17.7458 105.437 17.71C105.297 17.6709 105.043 17.6514 104.675 17.6514C104.646 17.6514 104.579 17.653 104.475 17.6562Z" fill="black"/>
<path d="M107.761 21.9971L107.663 21.1719C107.855 21.224 108.023 21.25 108.166 21.25C108.361 21.25 108.518 21.2174 108.635 21.1523C108.752 21.0872 108.848 20.9961 108.923 20.8789C108.978 20.791 109.068 20.5729 109.191 20.2246C109.208 20.1758 109.234 20.1042 109.27 20.0098L107.302 14.8145H108.249L109.328 17.8174C109.468 18.1982 109.593 18.5986 109.704 19.0186C109.805 18.6149 109.925 18.221 110.065 17.8369L111.174 14.8145H112.053L110.08 20.0879C109.868 20.6576 109.704 21.0498 109.587 21.2646C109.431 21.5544 109.252 21.766 109.05 21.8994C108.848 22.0361 108.607 22.1045 108.327 22.1045C108.158 22.1045 107.969 22.0687 107.761 21.9971Z" fill="black"/>
<path d="M116.276 14.8145H119.89V19.2773H120.451V21.4697H119.729V20H115.646V21.4697H114.924V19.2773H115.388C116.006 18.4375 116.302 16.9499 116.276 14.8145ZM117.009 15.542C116.944 17.2249 116.683 18.4701 116.228 19.2773H119.016V15.542H117.009Z" fill="black"/>
<path d="M124.807 19.3604C124.481 19.637 124.167 19.8324 123.864 19.9463C123.565 20.0602 123.243 20.1172 122.897 20.1172C122.328 20.1172 121.89 19.9788 121.584 19.7021C121.278 19.4222 121.125 19.0658 121.125 18.6328C121.125 18.3789 121.182 18.1478 121.296 17.9395C121.413 17.7279 121.564 17.5586 121.75 17.4316C121.939 17.3047 122.15 17.2087 122.385 17.1436C122.557 17.098 122.818 17.054 123.166 17.0117C123.876 16.9271 124.398 16.8262 124.733 16.709C124.737 16.5885 124.738 16.512 124.738 16.4795C124.738 16.1214 124.655 15.8691 124.489 15.7227C124.265 15.5241 123.931 15.4248 123.488 15.4248C123.075 15.4248 122.769 15.498 122.57 15.6445C122.375 15.7878 122.23 16.0433 122.136 16.4111L121.276 16.2939C121.354 15.9261 121.483 15.6299 121.662 15.4053C121.841 15.1774 122.1 15.0033 122.438 14.8828C122.777 14.7591 123.169 14.6973 123.615 14.6973C124.058 14.6973 124.418 14.7493 124.694 14.8535C124.971 14.9577 125.174 15.0895 125.305 15.249C125.435 15.4053 125.526 15.6038 125.578 15.8447C125.607 15.9945 125.622 16.2646 125.622 16.6553V17.8271C125.622 18.6442 125.64 19.1618 125.676 19.3799C125.715 19.5947 125.79 19.8014 125.9 20H124.982C124.891 19.8177 124.833 19.6045 124.807 19.3604ZM124.733 17.3975C124.414 17.5277 123.936 17.6383 123.298 17.7295C122.937 17.7816 122.681 17.8402 122.531 17.9053C122.382 17.9704 122.266 18.0664 122.185 18.1934C122.103 18.3171 122.062 18.4554 122.062 18.6084C122.062 18.8428 122.15 19.0381 122.326 19.1943C122.505 19.3506 122.766 19.4287 123.107 19.4287C123.446 19.4287 123.747 19.3555 124.011 19.209C124.274 19.0592 124.468 18.8558 124.592 18.5986C124.686 18.4001 124.733 18.1071 124.733 17.7197V17.3975Z" fill="black"/>
<path d="M126.994 14.8145H127.873V16.9727H130.31V14.8145H131.188V20H130.31V17.7002H127.873V20H126.994V14.8145Z" fill="black"/>
<path d="M132.521 14.8145H133.4V16.9727H135.837V14.8145H136.716V20H135.837V17.7002H133.4V20H132.521V14.8145Z" fill="black"/>
<path d="M142.98 14.8145H143.859V20H142.98V14.8145ZM138.063 14.8145H138.942V16.8408H140.056C140.782 16.8408 141.34 16.9824 141.73 17.2656C142.124 17.5456 142.321 17.9329 142.321 18.4277C142.321 18.8607 142.157 19.2318 141.828 19.541C141.503 19.847 140.98 20 140.261 20H138.063V14.8145ZM138.942 19.2773H139.865C140.422 19.2773 140.819 19.209 141.057 19.0723C141.294 18.9355 141.413 18.7223 141.413 18.4326C141.413 18.208 141.325 18.0078 141.149 17.832C140.974 17.6562 140.585 17.5684 139.982 17.5684H138.942V19.2773Z" fill="black"/>
<path d="M144.646 20L146.54 17.3047L144.787 14.8145H145.886L146.682 16.0303C146.831 16.2614 146.952 16.4551 147.043 16.6113C147.186 16.3965 147.318 16.2061 147.438 16.04L148.312 14.8145H149.362L147.57 17.2559L149.499 20H148.42L147.355 18.3887L147.072 17.9541L145.71 20H144.646Z" fill="black"/>
</svg>
