<svg width="149" height="36" viewBox="0 0 149 36" fill="none" xmlns="http://www.w3.org/2000/svg">
<path d="M76.4062 19.9844L77.9219 20.3672C77.6042 21.612 77.0312 22.5625 76.2031 23.2188C75.3802 23.8698 74.3724 24.1953 73.1797 24.1953C71.9453 24.1953 70.9401 23.9453 70.1641 23.4453C69.3932 22.9401 68.8047 22.2109 68.3984 21.2578C67.9974 20.3047 67.7969 19.2812 67.7969 18.1875C67.7969 16.9948 68.0234 15.9557 68.4766 15.0703C68.9349 14.1797 69.5833 13.5052 70.4219 13.0469C71.2656 12.5833 72.1927 12.3516 73.2031 12.3516C74.349 12.3516 75.3125 12.6432 76.0938 13.2266C76.875 13.8099 77.4193 14.6302 77.7266 15.6875L76.2344 16.0391C75.9688 15.2057 75.5833 14.599 75.0781 14.2188C74.5729 13.8385 73.9375 13.6484 73.1719 13.6484C72.2917 13.6484 71.5547 13.8594 70.9609 14.2812C70.3724 14.7031 69.9583 15.2708 69.7188 15.9844C69.4792 16.6927 69.3594 17.4245 69.3594 18.1797C69.3594 19.1536 69.5 20.0052 69.7812 20.7344C70.0677 21.4583 70.5104 22 71.1094 22.3594C71.7083 22.7188 72.3568 22.8984 73.0547 22.8984C73.9036 22.8984 74.6224 22.6536 75.2109 22.1641C75.7995 21.6745 76.1979 20.9479 76.4062 19.9844Z" fill="black"/>
<path d="M79.6172 24V12.5469H81.0234V16.6562C81.6797 15.8958 82.5078 15.5156 83.5078 15.5156C84.1224 15.5156 84.6562 15.638 85.1094 15.8828C85.5625 16.1224 85.8854 16.4557 86.0781 16.8828C86.276 17.3099 86.375 17.9297 86.375 18.7422V24H84.9688V18.7422C84.9688 18.0391 84.8151 17.5286 84.5078 17.2109C84.2057 16.888 83.776 16.7266 83.2188 16.7266C82.8021 16.7266 82.4089 16.8359 82.0391 17.0547C81.6745 17.2682 81.4141 17.5599 81.2578 17.9297C81.1016 18.2995 81.0234 18.8099 81.0234 19.4609V24H79.6172Z" fill="black"/>
<path d="M93.9375 22.9766C93.4167 23.4193 92.9141 23.7318 92.4297 23.9141C91.9505 24.0964 91.4349 24.1875 90.8828 24.1875C89.9714 24.1875 89.2708 23.9661 88.7812 23.5234C88.2917 23.0755 88.0469 22.5052 88.0469 21.8125C88.0469 21.4062 88.138 21.0365 88.3203 20.7031C88.5078 20.3646 88.75 20.0938 89.0469 19.8906C89.349 19.6875 89.6875 19.5339 90.0625 19.4297C90.3385 19.3568 90.7552 19.2865 91.3125 19.2188C92.4479 19.0833 93.2839 18.9219 93.8203 18.7344C93.8255 18.5417 93.8281 18.4193 93.8281 18.3672C93.8281 17.7943 93.6953 17.3906 93.4297 17.1562C93.0703 16.8385 92.5365 16.6797 91.8281 16.6797C91.1667 16.6797 90.6771 16.7969 90.3594 17.0312C90.0469 17.2604 89.8151 17.6693 89.6641 18.2578L88.2891 18.0703C88.4141 17.4818 88.6198 17.0078 88.9062 16.6484C89.1927 16.2839 89.6068 16.0052 90.1484 15.8125C90.6901 15.6146 91.3177 15.5156 92.0312 15.5156C92.7396 15.5156 93.3151 15.599 93.7578 15.7656C94.2005 15.9323 94.526 16.1432 94.7344 16.3984C94.9427 16.6484 95.0885 16.9661 95.1719 17.3516C95.2188 17.5911 95.2422 18.0234 95.2422 18.6484V20.5234C95.2422 21.8307 95.2708 22.6589 95.3281 23.0078C95.3906 23.3516 95.5104 23.6823 95.6875 24H94.2188C94.0729 23.7083 93.9792 23.3672 93.9375 22.9766ZM93.8203 19.8359C93.3099 20.0443 92.5443 20.2214 91.5234 20.3672C90.9453 20.4505 90.5365 20.5443 90.2969 20.6484C90.0573 20.7526 89.8724 20.9062 89.7422 21.1094C89.612 21.3073 89.5469 21.5286 89.5469 21.7734C89.5469 22.1484 89.6875 22.4609 89.9688 22.7109C90.2552 22.9609 90.6719 23.0859 91.2188 23.0859C91.7604 23.0859 92.2422 22.9688 92.6641 22.7344C93.0859 22.4948 93.3958 22.1693 93.5938 21.7578C93.7448 21.4401 93.8203 20.9714 93.8203 20.3516V19.8359Z" fill="black"/>
<path d="M97.4297 24V15.7031H98.6953V16.8828C99.3047 15.9714 100.185 15.5156 101.336 15.5156C101.836 15.5156 102.294 15.6068 102.711 15.7891C103.133 15.9661 103.448 16.2005 103.656 16.4922C103.865 16.7839 104.01 17.1302 104.094 17.5312C104.146 17.7917 104.172 18.2474 104.172 18.8984V24H102.766V18.9531C102.766 18.3802 102.711 17.9531 102.602 17.6719C102.492 17.3854 102.297 17.1589 102.016 16.9922C101.74 16.8203 101.414 16.7344 101.039 16.7344C100.44 16.7344 99.9219 16.9245 99.4844 17.3047C99.0521 17.6849 98.8359 18.4062 98.8359 19.4688V24H97.4297Z" fill="black"/>
<path d="M106.078 24.6875L107.445 24.8906C107.503 25.3125 107.661 25.6198 107.922 25.8125C108.271 26.0729 108.747 26.2031 109.352 26.2031C110.003 26.2031 110.505 26.0729 110.859 25.8125C111.214 25.5521 111.453 25.1875 111.578 24.7188C111.651 24.4323 111.685 23.8307 111.68 22.9141C111.065 23.638 110.299 24 109.383 24C108.242 24 107.359 23.5885 106.734 22.7656C106.109 21.9427 105.797 20.9557 105.797 19.8047C105.797 19.013 105.94 18.2839 106.227 17.6172C106.513 16.9453 106.927 16.4271 107.469 16.0625C108.016 15.6979 108.656 15.5156 109.391 15.5156C110.37 15.5156 111.177 15.9115 111.812 16.7031V15.7031H113.109V22.875C113.109 24.1667 112.977 25.0807 112.711 25.6172C112.451 26.1589 112.034 26.5859 111.461 26.8984C110.893 27.2109 110.193 27.3672 109.359 27.3672C108.37 27.3672 107.57 27.1432 106.961 26.6953C106.352 26.2526 106.057 25.5833 106.078 24.6875ZM107.242 19.7031C107.242 20.7917 107.458 21.5859 107.891 22.0859C108.323 22.5859 108.865 22.8359 109.516 22.8359C110.161 22.8359 110.703 22.5885 111.141 22.0938C111.578 21.5938 111.797 20.8125 111.797 19.75C111.797 18.7344 111.57 17.9688 111.117 17.4531C110.669 16.9375 110.128 16.6797 109.492 16.6797C108.867 16.6797 108.336 16.9349 107.898 17.4453C107.461 17.9505 107.242 18.7031 107.242 19.7031Z" fill="black"/>
<path d="M120.922 21.3281L122.375 21.5078C122.146 22.3568 121.721 23.0156 121.102 23.4844C120.482 23.9531 119.69 24.1875 118.727 24.1875C117.513 24.1875 116.549 23.8151 115.836 23.0703C115.128 22.3203 114.773 21.2708 114.773 19.9219C114.773 18.526 115.133 17.4427 115.852 16.6719C116.57 15.901 117.503 15.5156 118.648 15.5156C119.758 15.5156 120.664 15.8932 121.367 16.6484C122.07 17.4036 122.422 18.4661 122.422 19.8359C122.422 19.9193 122.419 20.0443 122.414 20.2109H116.227C116.279 21.1224 116.536 21.8203 117 22.3047C117.464 22.7891 118.042 23.0312 118.734 23.0312C119.25 23.0312 119.69 22.8958 120.055 22.625C120.419 22.3542 120.708 21.9219 120.922 21.3281ZM116.305 19.0547H120.938C120.875 18.3568 120.698 17.8333 120.406 17.4844C119.958 16.9427 119.378 16.6719 118.664 16.6719C118.018 16.6719 117.474 16.888 117.031 17.3203C116.594 17.7526 116.352 18.3307 116.305 19.0547Z" fill="black"/>
<path d="M128.781 24V12.5469H132.727C133.617 12.5469 134.297 12.6016 134.766 12.7109C135.422 12.862 135.982 13.1354 136.445 13.5312C137.049 14.0417 137.5 14.6953 137.797 15.4922C138.099 16.2839 138.25 17.1901 138.25 18.2109C138.25 19.0807 138.148 19.8516 137.945 20.5234C137.742 21.1953 137.482 21.7526 137.164 22.1953C136.846 22.6328 136.497 22.9792 136.117 23.2344C135.742 23.4844 135.286 23.6745 134.75 23.8047C134.219 23.9349 133.607 24 132.914 24H128.781ZM130.297 22.6484H132.742C133.497 22.6484 134.089 22.5781 134.516 22.4375C134.948 22.2969 135.292 22.099 135.547 21.8438C135.906 21.4844 136.185 21.0026 136.383 20.3984C136.586 19.7891 136.688 19.0521 136.688 18.1875C136.688 16.9896 136.49 16.0703 136.094 15.4297C135.703 14.7839 135.227 14.3516 134.664 14.1328C134.258 13.9766 133.604 13.8984 132.703 13.8984H130.297V22.6484Z" fill="black"/>
<path d="M140.281 24V12.5469H144.578C145.453 12.5469 146.154 12.6641 146.68 12.8984C147.211 13.1276 147.625 13.4844 147.922 13.9688C148.224 14.4479 148.375 14.9505 148.375 15.4766C148.375 15.9661 148.242 16.4271 147.977 16.8594C147.711 17.2917 147.31 17.6406 146.773 17.9062C147.466 18.1094 147.997 18.4557 148.367 18.9453C148.742 19.4349 148.93 20.013 148.93 20.6797C148.93 21.2161 148.815 21.7161 148.586 22.1797C148.362 22.638 148.083 22.9922 147.75 23.2422C147.417 23.4922 146.997 23.6823 146.492 23.8125C145.992 23.9375 145.378 24 144.648 24H140.281ZM141.797 17.3594H144.273C144.945 17.3594 145.427 17.3151 145.719 17.2266C146.104 17.112 146.393 16.9219 146.586 16.6562C146.784 16.3906 146.883 16.0573 146.883 15.6562C146.883 15.276 146.792 14.9427 146.609 14.6562C146.427 14.3646 146.167 14.1667 145.828 14.0625C145.49 13.9531 144.909 13.8984 144.086 13.8984H141.797V17.3594ZM141.797 22.6484H144.648C145.138 22.6484 145.482 22.6302 145.68 22.5938C146.029 22.5312 146.32 22.4271 146.555 22.2812C146.789 22.1354 146.982 21.9245 147.133 21.6484C147.284 21.3672 147.359 21.0443 147.359 20.6797C147.359 20.2526 147.25 19.8828 147.031 19.5703C146.812 19.2526 146.508 19.0312 146.117 18.9062C145.732 18.776 145.174 18.7109 144.445 18.7109H141.797V22.6484Z" fill="black"/>
<path fill-rule="evenodd" clip-rule="evenodd" d="M33.5858 13.6552C29.5651 7.22507 19.8048 2 0 2V0C20.0343 0 30.7045 5.27493 35.2815 12.5948C39.3994 19.1803 38.3685 27.0691 35.32 33.4401L41.8013 31.6977C42.3347 31.5543 42.8833 31.8704 43.0267 32.4038C43.1701 32.9371 42.8539 33.4857 42.3206 33.6291L33.6292 35.9657C33.0958 36.1091 32.5472 35.793 32.4039 35.2596L30.0672 26.5682C29.9239 26.0349 30.24 25.4863 30.7733 25.3429C31.3067 25.1995 31.8553 25.5156 31.9987 26.049L33.6677 32.2572C36.4155 26.3346 37.1476 19.3515 33.5858 13.6552Z" fill="black"/>
</svg>
